<svg xmlns="http://www.w3.org/2000/svg" xmlns:xlink="http://www.w3.org/1999/xlink" version="1.1" x="0px" y="0px" viewBox="0 0 100 125" fill="#2b7afd" enable-background="new 0 0 100 100" xml:space="preserve"><path d="M66.377,38.65h-8.973c-0.295,0-0.538,0.238-0.538,0.541c0,1.92,2.203,3.425,5.024,3.425c2.819,0,5.031-1.505,5.031-3.425  C66.922,38.888,66.679,38.65,66.377,38.65z M61.891,41.534c-1.827,0-3.411-0.784-3.834-1.802h7.666  C65.3,40.75,63.717,41.534,61.891,41.534z"/><path d="M59.128,35.646c0.845,0,1.529-0.686,1.529-1.533c0-0.845-0.685-1.534-1.529-1.534s-1.538,0.689-1.538,1.534  C57.59,34.96,58.283,35.646,59.128,35.646z M59.128,33.66c0.249,0,0.447,0.203,0.447,0.452c0,0.249-0.198,0.451-0.447,0.451  s-0.446-0.203-0.446-0.451C58.682,33.863,58.879,33.66,59.128,33.66z"/><path d="M63.099,34.653h2.674c0.302,0,0.545-0.243,0.545-0.541c0-0.298-0.243-0.542-0.545-0.542h-2.674  c-0.303,0-0.546,0.243-0.546,0.542C62.553,34.41,62.796,34.653,63.099,34.653z"/><path d="M27.547,74.704c0.9,0,1.688-0.359,2.213-0.995c0.542-0.655,0.743-1.525,0.569-2.438c-0.227-1.194-1.089-2.283-2.246-2.844  c-0.271-0.133-0.591-0.016-0.721,0.253c-0.134,0.267-0.019,0.591,0.252,0.724c0.852,0.414,1.484,1.203,1.65,2.075  c0.115,0.59-0.006,1.133-0.338,1.535c-0.317,0.391-0.809,0.608-1.38,0.608c-1.288,0-2.538-1.056-2.786-2.352  c-0.154-0.796,0.134-1.524,0.751-1.896c0.257-0.144,0.341-0.477,0.192-0.732c-0.154-0.266-0.486-0.35-0.742-0.195  c-1.022,0.61-1.508,1.771-1.266,3.031C24.046,73.288,25.733,74.704,27.547,74.704z"/><path d="M91.954,81.069h-5.779c0.029-0.086,0.063-0.165,0.081-0.222c0.003-0.008,0.006-0.025,0.008-0.032l3.335-12.067l0.178,0.03  c0.077,0.013,0.154,0.027,0.229,0.027c0.254,0,0.503-0.077,0.721-0.228c0.273-0.189,0.458-0.482,0.521-0.814  c0.007-0.039,0.009-0.088,0.006-0.137l-0.86-12.729c-0.129-2.744-1.975-4.313-3.85-4.943c2.02-1.083,3.419-4.007,3.419-7.527  c0-4.476-2.268-7.984-5.167-7.984h-9.132v-5.19c0.575-0.585,0.929-1.386,0.929-2.274v-0.06l-1.809-7.811  c-0.448-1.989-1.691-3.132-3.422-3.132H67.58c-0.246-1.033-1.171-1.802-2.284-1.802c-1.104,0-2.03,0.769-2.275,1.802H59.22  c-1.134,0-2.605,0.541-3.233,3.127l-1.45,6.252h-2.305c-1.341,0-2.437,1.096-2.437,2.437s1.095,2.437,2.437,2.437h2.865v4.214  h-2.801c-2.904,0-5.171,3.509-5.171,7.984c0,3.124,1.104,5.775,2.759,7.087c-1.336,0.239-2.665,0.767-3.779,1.931  c-0.008,0.018-0.015,0.025-0.021,0.033l-7.38,8.846h-4.508l-6.193-8.335l0.39-0.815c0.149-0.298,0.166-0.648,0.058-0.964  c-0.112-0.32-0.338-0.575-0.645-0.719l-0.017-0.008c-0.628-0.277-1.27-0.689-1.428-0.91l2.11-4.376  c0.141-0.285,0.153-0.603,0.041-0.906c-0.105-0.292-0.325-0.524-0.604-0.665l-1.832-0.882c-0.596-0.287-1.305-0.046-1.585,0.534  l-2.16,4.478c-0.011,0.023-0.021,0.051-0.03,0.079l-2.851-1.374c-0.154-0.075-0.318-0.113-0.489-0.112  c-0.455,0.002-0.881,0.281-1.087,0.708l-0.553,1.151c-0.05,0.093-0.078,0.19-0.101,0.292c-0.414,0.041-0.791,0.303-0.979,0.7  l-0.557,1.146c-0.137,0.286-0.165,0.607-0.078,0.903c0.027,0.083,0.061,0.161,0.102,0.235c-0.078,0.087-0.146,0.183-0.196,0.288  l-0.553,1.151c-0.141,0.29-0.166,0.611-0.078,0.903c0.077,0.253,0.232,0.474,0.447,0.621c-0.03,0.039-0.057,0.087-0.077,0.129  l-0.558,1.15c-0.136,0.282-0.166,0.604-0.078,0.903c0.096,0.313,0.31,0.568,0.594,0.699l6.376,3.075  c0.307,0.149,0.648,0.167,0.968,0.059c0.036-0.012,0.066-0.023,0.102-0.038l0.542,0.899H10.935c-0.896,0-1.622,0.729-1.622,1.626  v0.057l3.609,18.586c0.005,0.168,0.038,0.331,0.091,0.477H8.041c-0.298,0-0.541,0.243-0.541,0.545v3.667  c0,0.302,0.243,0.545,0.541,0.545h83.913c0.303,0,0.546-0.243,0.546-0.545v-3.667C92.5,81.313,92.257,81.069,91.954,81.069z   M85.22,80.518c-0.102,0.304-0.186,0.444-0.264,0.507l0.132,0.045H60.446c0.059-0.146,0.094-0.31,0.112-0.495l0.065-0.593  c0.055-0.505-0.062-0.911-0.327-1.201c-0.278-0.315-0.72-0.475-1.298-0.475H47.022l5.025-0.85l26.505-2.947  c0.25-0.024,0.443-0.218,0.479-0.468l0.271-2.312l0.24-2.04l0,0l0.33-2.793l8.659,1.644L85.22,80.518z M46.33,69.209  c0.009,0.016,0.02,0.022,0.03,0.028c0.229,0.136,0.471,0.208,0.708,0.208c0.099,0,0.194-0.01,0.288-0.03  c0.543-0.137,0.872-0.598,0.991-0.803l2.105-3.62l1.217,11.426l-6.145,1.046l-1.143-5.898L46.33,69.209z M44.112,70.188l-0.588-3.03  l1.928,1.415L44.112,70.188z M59.547,79.872l-0.063,0.586c-0.044,0.424-0.253,0.611-0.663,0.611h-1.704H46.62  c-0.114,0-0.349-0.001-0.523-0.666l-0.198-1.016h13.101c0.366,0,0.472,0.087,0.492,0.11C59.546,79.559,59.564,79.697,59.547,79.872z   M59.218,70.522c0.101-0.636,0.163-1.321,0.179-2.02c0.429-0.206,0.731-0.64,0.731-1.145V50.404h1.249  c0.27,2.816,2.653,5.02,5.541,5.02c2.889,0,5.262-2.204,5.542-5.02h1.342v16.955c0,0.572,0.375,1.056,0.902,1.214  c0.106,0.858,0.277,1.681,0.513,2.449c-0.216,0.358-0.252,0.803-0.066,1.203l0.713,1.499l-19.051,2.11  c0.428-0.482,0.838-1.035,1.207-1.697c0.431-0.122,0.777-0.459,0.887-0.906l0.451-1.756C59.441,71.141,59.38,70.804,59.218,70.522z   M69.451,35.505h1.986c0.302,0,0.545-0.243,0.545-0.541c0-0.72,0.582-1.304,1.294-1.304c0.722,0,1.304,0.583,1.304,1.304v6.436  c0,1.195-0.974,2.164-2.164,2.164H58.353c-1.198,0-2.164-0.969-2.164-2.164v-11.17h1.226h11.501v4.735  C68.915,35.262,69.157,35.505,69.451,35.505z M69.997,34.423v-4.194h1.937h1.412c0.443,0,0.859-0.087,1.234-0.245v2.986  c-0.37-0.246-0.821-0.392-1.304-0.392c-1.122,0-2.072,0.788-2.31,1.844H69.997z M71.399,49.899  c-0.017,2.451-2.027,4.442-4.481,4.442c-2.474,0-4.483-2.009-4.483-4.478v-5.218h8.961v5.218  C71.396,49.874,71.398,49.884,71.399,49.899z M74.884,49.863v-0.304c0-0.098,0.081-0.179,0.179-0.179h3.604  c0.105,0,0.188,0.081,0.188,0.179v12.259l-1.105,3.315c-0.006,0.031-0.012,0.052-0.016,0.075c-0.063,0.332,0.011,0.666,0.209,0.95  c0.188,0.273,0.474,0.457,0.801,0.52l0.063,0.01l-0.099,0.842c-0.01,0.003-0.021,0.007-0.04,0.007h-0.011h-3.475h-0.119  c-0.098,0-0.179-0.081-0.179-0.179V49.864C74.884,49.864,74.884,49.864,74.884,49.863C74.884,49.863,74.884,49.863,74.884,49.863z   M76.157,71.563c0.005-0.003,0.011-0.006,0.015-0.011c0.002-0.002,0.003-0.003,0.006-0.005c0.019-0.017,0.027-0.025,0.038-0.03  l2.143-1.009l-0.209,1.739l-0.095,0.807l-0.91,0.431c-0.022,0.01-0.055,0.016-0.078,0.016c-0.056,0-0.123-0.024-0.163-0.102  l-0.772-1.641C76.094,71.689,76.114,71.611,76.157,71.563z M75.796,68.618h2.364c0.031,0.204,0.066,0.448,0.132,0.723l-2.147,1.013  C75.994,69.809,75.88,69.228,75.796,68.618z M59.047,67.358c0,0.098-0.082,0.179-0.18,0.179h-3.474h-0.139  c-0.098,0-0.179-0.081-0.179-0.179V49.559c0-0.098,0.081-0.179,0.179-0.179h3.612c0.098,0,0.18,0.081,0.18,0.179V67.358z   M58.314,68.618c-0.014,0.44-0.044,0.86-0.098,1.268l-2.391-0.609c0.043-0.25,0.066-0.468,0.08-0.658H58.314z M55.115,70.219  l3.055,0.77c0.104,0.022,0.156,0.119,0.135,0.224l-0.441,1.756c-0.034,0.109-0.139,0.144-0.223,0.126l-3.063-0.772  c-0.064-0.013-0.095-0.06-0.107-0.081s-0.041-0.075-0.018-0.14l0.44-1.756c0.021-0.093,0.105-0.14,0.174-0.14  C55.08,70.205,55.093,70.216,55.115,70.219z M56.832,74.006c-0.544,0.88-1.189,1.539-1.822,2.033l-2.264,0.251l-0.152-1.483  c0.595-0.404,1.127-0.901,1.575-1.482c0.05,0.017,0.093,0.03,0.146,0.051L56.832,74.006z M89.313,54.96l0.856,12.652  c-0.016,0.043-0.049,0.063-0.063,0.074c-0.021,0.015-0.072,0.046-0.126,0.026l-11.032-2.101c-0.066-0.011-0.107-0.046-0.122-0.074  c-0.012-0.019-0.03-0.054-0.028-0.108l2.054-6.195c0.092-0.28-0.063-0.589-0.353-0.682c-0.204-0.07-0.428-0.003-0.562,0.152v-8.301  h0.812c0.018,0,0.026-0.002,0.035-0.002c0.017,0,0.032,0.003,0.048,0.002c0.032-0.001,2.713-0.072,4.874,0.435  C86.517,51.025,89.171,51.89,89.313,54.96z M84.795,35.525c2.218,0,4.084,3.159,4.084,6.902c0,3.74-1.866,6.898-4.084,6.898  c-2.206,0-4.08-3.151-4.085-6.884c0.119-2.374,1.448-3.983,2.721-4.524c0.46-0.2,1.357-0.431,2.131,0.233  c1.066,0.999,1.854,3.546,1.264,5.922c-0.42,1.55-1.217,2.277-1.815,2.314c-0.561,0.034-1.117-0.511-1.521-1.5  c-0.249-0.618-0.341-1.327-0.308-1.996h0.601c-0.057,0.442,0.015,0.914,0.182,1.218c0.214,0.456,0.591,0.738,1.033,0.752  c0.475,0.018,0.926-0.293,1.217-0.851c0.313-0.585,0.507-1.662,0.132-2.925c-0.271-0.912-0.782-1.532-1.415-1.743  c-0.488-0.163-0.999-0.07-1.45,0.25c-1.449,0.937-1.725,3.878-0.993,5.704c0.769,1.855,1.828,2.174,2.47,2.174  c0.046,0,0.08-0.001,0.122-0.003c1.215-0.075,2.285-1.264,2.789-3.121c0.639-2.564-0.036-5.569-1.573-6.999l-0.014-0.012  c-0.896-0.773-2.088-0.921-3.273-0.414c-0.373,0.159-0.741,0.386-1.104,0.678C82.648,36.33,83.682,35.525,84.795,35.525z   M84.898,41.929c-0.127-0.116-0.297-0.153-0.456-0.12h-1.106c0.149-0.618,0.42-1.107,0.744-1.311l0.031-0.021  c0.163-0.121,0.323-0.157,0.479-0.107c0.282,0.094,0.549,0.481,0.714,1.029c0.29,0.949,0.154,1.723-0.043,2.105  c-0.116,0.21-0.213,0.271-0.221,0.277c-0.012-0.004-0.061-0.042-0.099-0.135l-0.023-0.051c-0.107-0.172-0.091-0.75,0.037-0.905  C85.148,42.467,85.127,42.122,84.898,41.929z M75.663,35.525h6.495c-1.524,1.371-2.53,3.922-2.53,6.902  c0,2.976,1.006,5.528,2.53,6.898h-0.266c-0.623-0.019-1.041-0.004-1.089-0.003c-0.008,0-0.014,0.002-0.021,0.003  c-0.009-0.001-0.018-0.003-0.035-0.003h-0.843c-0.108-0.582-0.619-1.024-1.238-1.024h-3.604c-0.61,0-1.13,0.442-1.24,1.024h-1.344  v-4.679c1.761-0.033,3.185-1.476,3.185-3.244V35.525z M71.361,17.058c1.615,0,2.167,1.432,2.364,2.287l1.784,7.696  c-0.028,1.166-0.991,2.107-2.164,2.107h-0.984l-2.374-10.208c-0.087-0.522-0.348-1.268-0.86-1.882H71.361z M65.296,15.256  c0.502,0,0.943,0.294,1.144,0.72h-2.277C64.361,15.55,64.794,15.256,65.296,15.256z M57.042,19.353  c0.496-2.056,1.483-2.295,2.178-2.295h3.733h3.907c1.698,0,2.048,1.988,2.062,2.071l2.03,8.74c-1.261-1.141-3.274-2.513-5.649-2.513  h-9.658L57.042,19.353z M52.231,29.147c-0.746,0-1.35-0.608-1.35-1.354c0-0.747,0.604-1.355,1.35-1.355h13.071  c2.343,0,4.361,1.65,5.422,2.71H52.231z M48.207,42.427c0-3.744,1.872-6.902,4.089-6.902h2.801v5.875  c0,1.79,1.462,3.246,3.256,3.246h3v4.677h-1.246c-0.118-0.582-0.628-1.024-1.239-1.024h-3.612c-0.61,0-1.121,0.442-1.24,1.024  h-0.936c-0.26,0-0.525,0-0.805,0.003C50.072,49.31,48.207,46.155,48.207,42.427z M46.9,52.18c1.707-1.776,4.086-1.776,6.179-1.776  h0.915v16.955c0,0.55,0.346,1.007,0.832,1.183c-0.014,0.181-0.035,0.388-0.078,0.631c-0.436,0.11-0.786,0.449-0.907,0.909  l-0.44,1.757c-0.061,0.229-0.054,0.467,0.018,0.68c-0.314,0.428-0.592,0.809-0.938,1.131l-1.462-14.355  c-0.023-0.301-0.286-0.516-0.587-0.489c-0.293,0.023-0.515,0.295-0.489,0.587l0.34,3.737l-2.866,4.941  c-0.089,0.144-0.222,0.27-0.315,0.291c-0.016,0.004-0.061,0.013-0.155-0.033l-3.725-2.737L42.5,61.891  c-0.026-0.865-0.746-1.566-1.621-1.566h-0.765L46.9,52.18z M18.293,47.676l0.552-1.151c0.033-0.063,0.083-0.091,0.125-0.09  c0.002,0,0.008,0,0.011,0l3.917,1.892c0,0,0,0,0,0l0,0l0.054,0.023c0.027,0.015,0.052,0.082,0.014,0.161l-0.558,1.151  c-0.035,0.071-0.088,0.093-0.118,0.093l-3.989-1.919C18.28,47.826,18.255,47.754,18.293,47.676z M16.661,49.818l0.553-1.151  c0.032-0.067,0.083-0.091,0.125-0.091c0.002,0,0.004,0,0.006,0l4.167,2.007l0.297,0.147c0-0.001,0-0.001,0-0.001l0.627,0.296  c0.012,0.015,0.019,0.032,0.022,0.041c0.009,0.018,0.017,0.067-0.013,0.119l-0.553,1.152c-0.035,0.07-0.088,0.093-0.118,0.093  l-5.105-2.457c-0.012-0.006-0.023-0.023-0.026-0.033C16.639,49.922,16.63,49.876,16.661,49.818z M15.931,52.396l0.557-1.15  c0.028-0.067,0.083-0.092,0.125-0.092c0.002,0,0.004,0,0.006,0l4.395,2.115c0.011,0.015,0.018,0.031,0.021,0.041  c0.005,0.016,0.012,0.067-0.013,0.119l-0.557,1.151c-0.03,0.071-0.088,0.094-0.113,0.094l-4.412-2.118  c-0.012-0.005-0.019-0.031-0.021-0.041C15.914,52.5,15.901,52.457,15.931,52.396z M19.645,55.7l-0.558,1.15  c-0.034,0.063-0.087,0.094-0.118,0.094l-3.29-1.584c-0.013-0.015-0.019-0.031-0.026-0.041c-0.005-0.016-0.013-0.066,0.017-0.119  l0.553-1.151c0.032-0.067,0.084-0.091,0.125-0.091c0.002,0,0.003,0,0.005,0.001l3.278,1.581c0.017,0.005,0.023,0.022,0.026,0.032  C19.662,55.587,19.67,55.639,19.645,55.7z M22.733,57.448L22.3,58.354c-0.043,0.089-0.153,0.122-0.243,0.084l-2.064-0.996  c0.026-0.043,0.048-0.079,0.071-0.126l0.552-1.151c0.075-0.154,0.116-0.31,0.125-0.474c0.297-0.113,0.553-0.332,0.7-0.638  l0.553-1.15c0.069-0.144,0.11-0.284,0.123-0.437c0.32-0.098,0.598-0.334,0.748-0.655l0.557-1.15  c0.136-0.281,0.165-0.603,0.073-0.903c-0.047-0.161-0.129-0.308-0.233-0.427c0.045-0.06,0.088-0.127,0.123-0.199l0.553-1.147  c0.292-0.609,0.064-1.327-0.513-1.606l-0.06-0.028c-0.041-0.017-0.055-0.049-0.06-0.063c-0.007-0.023-0.007-0.041,0-0.061  l2.16-4.478c0.016-0.038,0.077-0.056,0.135-0.025l1.832,0.882c0.041,0.018,0.06,0.049,0.065,0.068c0.007,0.019,0.007,0.041,0,0.057  l-2.16,4.478l-0.01,0.023c-0.42,0.993,1.074,1.826,2.013,2.242c0.053,0.025,0.077,0.075,0.085,0.099  c0.008,0.022,0.022,0.079-0.007,0.14l-0.675,1.395l0,0.002c-0.227,0.429-0.661,1.059-1.202,1.242  c-0.303,0.109-0.613,0.061-0.955-0.133c-0.263-0.15-0.594-0.061-0.74,0.198c-0.15,0.259-0.056,0.59,0.202,0.739  c0.39,0.226,0.792,0.334,1.183,0.333c0.228-0.001,0.448-0.034,0.663-0.108c0.706-0.246,1.222-0.829,1.549-1.325l5.403,7.271h-8.387  L22.733,57.448z M10.396,61.903c0.02-0.274,0.255-0.498,0.539-0.498h29.943c0.297,0,0.541,0.243,0.541,0.545v0.057l3.606,18.564  c-0.02,0.284-0.255,0.498-0.539,0.498H15.333h-0.789c-0.302,0-0.541-0.243-0.541-0.537v-0.055L10.396,61.903z M91.417,84.745H8.582  V82.15h35.904c0.422,0,0.811-0.164,1.1-0.428c0.321,0.335,0.708,0.428,1.033,0.428h44.797V84.745z"/></svg>