<?xml version="1.0" standalone="no"?>
<!DOCTYPE svg PUBLIC "-//W3C//DTD SVG 1.1//EN"
"http://www.w3.org/Graphics/SVG/1.1/DTD/svg11.dtd">

<svg width="471" height="714" view_box="0 0 471 714"
xmlns="http://www.w3.org/2000/svg"
xmlns:link="http://www.w3.org/1999/xlink">\n\n<desc>Généré par Mocodo 2.3.7 le Fri, 16 Oct 2020 00:42:03</desc>

<rect id="frame" x="0" y="0" width="471" height="714" fill="#ffffbf" stroke="none" stroke-width="0"/>

<!-- Association BELONGS -->
<line x1="180" y1="391" x2="180" y2="145" stroke="#66bd63" stroke-width="2"/>
<text x="185.0" y="315" fill="#d73027" font-family="Verdana" font-size="12">0,N</text>
<line x1="300" y1="145" x2="180" y2="145" stroke="#66bd63" stroke-width="2"/>
<text x="222" y="162.0" fill="#d73027" font-family="Verdana" font-size="12">0,N</text>
<g id="association-BELONGS">
	<path d="M 203 120 a 14 14 90 0 1 14 14 V 145 h -74 V 134 a 14 14 90 0 1 14 -14" fill="#a6d96a" stroke="#a6d96a" stroke-width="0"/>
	<path d="M 217 145.0 v 11 a 14 14 90 0 1 -14 14 H 157 a 14 14 90 0 1 -14 -14 V 145.0 H 74" fill="#d9ef8b" stroke="#d9ef8b" stroke-width="0"/>
	<rect x="143" y="120" width="74" height="50" fill="none" rx="14" stroke="#66bd63" stroke-width="2"/>
	<line x1="143" y1="145" x2="217" y2="145" stroke="#66bd63" stroke-width="1"/>
	<text x="150" y="137.7" fill="#000000" font-family="Verdana" font-size="12">BELONGS</text>
</g>

<!-- Association GOES -->
<line x1="180" y1="391" x2="180" y2="603" stroke="#66bd63" stroke-width="2"/>
<text x="153.0" y="476" fill="#d73027" font-family="Verdana" font-size="12">0,N</text>
<line x1="66" y1="603" x2="180" y2="603" stroke="#66bd63" stroke-width="2"/>
<text x="128" y="620.0" fill="#d73027" font-family="Verdana" font-size="12">1,1</text>
<g id="association-GOES">
	<path d="M 191 578 a 14 14 90 0 1 14 14 V 603 h -50 V 592 a 14 14 90 0 1 14 -14" fill="#a6d96a" stroke="#a6d96a" stroke-width="0"/>
	<path d="M 205 603.0 v 11 a 14 14 90 0 1 -14 14 H 169 a 14 14 90 0 1 -14 -14 V 603.0 H 50" fill="#d9ef8b" stroke="#d9ef8b" stroke-width="0"/>
	<rect x="155" y="578" width="50" height="50" fill="none" rx="14" stroke="#66bd63" stroke-width="2"/>
	<line x1="155" y1="603" x2="205" y2="603" stroke="#66bd63" stroke-width="1"/>
	<text x="162" y="595.7" fill="#000000" font-family="Verdana" font-size="12">GOES</text>
</g>

<!-- Association PLAN -->
<line x1="180" y1="391" x2="66" y2="391" stroke="#66bd63" stroke-width="2"/>
<text x="102" y="408.0" fill="#d73027" font-family="Verdana" font-size="12">0,N</text>
<line x1="66" y1="145" x2="66" y2="391" stroke="#66bd63" stroke-width="2"/>
<text x="71.0" y="204" fill="#d73027" font-family="Verdana" font-size="12">1,1</text>
<g id="association-PLAN">
	<path d="M 75 366 a 14 14 90 0 1 14 14 V 391 h -46 V 380 a 14 14 90 0 1 14 -14" fill="#a6d96a" stroke="#a6d96a" stroke-width="0"/>
	<path d="M 89 391.0 v 11 a 14 14 90 0 1 -14 14 H 57 a 14 14 90 0 1 -14 -14 V 391.0 H 46" fill="#d9ef8b" stroke="#d9ef8b" stroke-width="0"/>
	<rect x="43" y="366" width="46" height="50" fill="none" rx="14" stroke="#66bd63" stroke-width="2"/>
	<line x1="43" y1="391" x2="89" y2="391" stroke="#66bd63" stroke-width="1"/>
	<text x="50" y="383.7" fill="#000000" font-family="Verdana" font-size="12">PLAN</text>
</g>

<!-- Association DOES -->
<line x1="180" y1="391" x2="300" y2="391" stroke="#66bd63" stroke-width="2"/>
<text x="236" y="383.0" fill="#d73027" font-family="Verdana" font-size="12">0,N</text>
<line x1="411" y1="391" x2="300" y2="391" stroke="#66bd63" stroke-width="2"/>
<text x="346" y="408.0" fill="#d73027" font-family="Verdana" font-size="12">1,1</text>
<g id="association-DOES">
	<path d="M 311 366 a 14 14 90 0 1 14 14 V 391 h -50 V 380 a 14 14 90 0 1 14 -14" fill="#a6d96a" stroke="#a6d96a" stroke-width="0"/>
	<path d="M 325 391.0 v 11 a 14 14 90 0 1 -14 14 H 289 a 14 14 90 0 1 -14 -14 V 391.0 H 50" fill="#d9ef8b" stroke="#d9ef8b" stroke-width="0"/>
	<rect x="275" y="366" width="50" height="50" fill="none" rx="14" stroke="#66bd63" stroke-width="2"/>
	<line x1="275" y1="391" x2="325" y2="391" stroke="#66bd63" stroke-width="1"/>
	<text x="282" y="383.7" fill="#000000" font-family="Verdana" font-size="12">DOES</text>
</g>

<!-- Association TAKES -->
<line x1="411" y1="603" x2="300" y2="603" stroke="#66bd63" stroke-width="2"/>
<text x="334" y="620.0" fill="#d73027" font-family="Verdana" font-size="12">1,1</text>
<line x1="180" y1="391" x2="300" y2="603" stroke="#66bd63" stroke-width="2"/>
<text x="195.891141828" y="476" fill="#d73027" font-family="Verdana" font-size="12">0,N</text>
<g id="association-TAKES">
	<path d="M 314 578 a 14 14 90 0 1 14 14 V 603 h -56 V 592 a 14 14 90 0 1 14 -14" fill="#a6d96a" stroke="#a6d96a" stroke-width="0"/>
	<path d="M 328 603.0 v 11 a 14 14 90 0 1 -14 14 H 286 a 14 14 90 0 1 -14 -14 V 603.0 H 56" fill="#d9ef8b" stroke="#d9ef8b" stroke-width="0"/>
	<rect x="272" y="578" width="56" height="50" fill="none" rx="14" stroke="#66bd63" stroke-width="2"/>
	<line x1="272" y1="603" x2="328" y2="603" stroke="#66bd63" stroke-width="1"/>
	<text x="279" y="595.7" fill="#000000" font-family="Verdana" font-size="12">TAKES</text>
</g>

<!-- Entity ACCOMODATION -->
<g id="entity-ACCOMODATION">
	<g id="frame-ACCOMODATION">
		<rect x="9" y="501" width="114" height="25" fill="#fdae61" stroke="#fdae61" stroke-width="0"/>
		<rect x="9" y="526.0" width="114" height="179" fill="#fee08b" stroke="#fee08b" stroke-width="0"/>
		<rect x="9" y="501" width="114" height="204" fill="none" stroke="#f46d43" stroke-width="2"/>
		<line x1="9" y1="526" x2="123" y2="526" stroke="#f46d43" stroke-width="1"/>
	</g>
	<text x="14" y="518.7" fill="#000000" font-family="Verdana" font-size="12">ACCOMODATION</text>
	<text x="14" y="543.7" fill="#000000" font-family="Verdana" font-size="12">adress</text>
	<line x1="14" y1="546" x2="54" y2="546" stroke="#000000" stroke-width="1"/>
	<text x="14" y="560.7" fill="#000000" font-family="Verdana" font-size="12">city</text>
	<text x="14" y="577.7" fill="#000000" font-family="Verdana" font-size="12">longitude</text>
	<text x="14" y="594.7" fill="#000000" font-family="Verdana" font-size="12">latitude</text>
	<text x="14" y="611.8" fill="#000000" font-family="Verdana" font-size="12">information</text>
	<text x="14" y="628.8" fill="#000000" font-family="Verdana" font-size="12">availability</text>
	<text x="14" y="645.8" fill="#000000" font-family="Verdana" font-size="12">arrival date</text>
	<text x="14" y="662.8" fill="#000000" font-family="Verdana" font-size="12">departure date</text>
	<text x="14" y="679.8" fill="#000000" font-family="Verdana" font-size="12">unit price</text>
	<text x="14" y="696.8" fill="#000000" font-family="Verdana" font-size="12">quantity</text>
</g>

<!-- Entity TASK -->
<g id="entity-TASK">
	<g id="frame-TASK">
		<rect x="27" y="103" width="78" height="25" fill="#fdae61" stroke="#fdae61" stroke-width="0"/>
		<rect x="27" y="128.0" width="78" height="59" fill="#fee08b" stroke="#fee08b" stroke-width="0"/>
		<rect x="27" y="103" width="78" height="84" fill="none" stroke="#f46d43" stroke-width="2"/>
		<line x1="27" y1="128" x2="105" y2="128" stroke="#f46d43" stroke-width="1"/>
	</g>
	<text x="49" y="120.7" fill="#000000" font-family="Verdana" font-size="12">TASK</text>
	<text x="32" y="145.8" fill="#000000" font-family="Verdana" font-size="12">name</text>
	<line x1="32" y1="148" x2="67" y2="148" stroke="#000000" stroke-width="1"/>
	<text x="32" y="162.8" fill="#000000" font-family="Verdana" font-size="12">description</text>
	<text x="32" y="179.8" fill="#000000" font-family="Verdana" font-size="12">deadline</text>
</g>

<!-- Entity TRAVEL -->
<g id="entity-TRAVEL">
	<g id="frame-TRAVEL">
		<rect x="129" y="323" width="102" height="25" fill="#fdae61" stroke="#fdae61" stroke-width="0"/>
		<rect x="129" y="348.0" width="102" height="111" fill="#fee08b" stroke="#fee08b" stroke-width="0"/>
		<rect x="129" y="323" width="102" height="136" fill="none" stroke="#f46d43" stroke-width="2"/>
		<line x1="129" y1="348" x2="231" y2="348" stroke="#f46d43" stroke-width="1"/>
	</g>
	<text x="156" y="340.7" fill="#000000" font-family="Verdana" font-size="12">TRAVEL</text>
	<text x="134" y="365.7" fill="#000000" font-family="Verdana" font-size="12">title</text>
	<line x1="134" y1="368" x2="158" y2="368" stroke="#000000" stroke-width="1"/>
	<text x="134" y="382.7" fill="#000000" font-family="Verdana" font-size="12">owner</text>
	<text x="134" y="399.8" fill="#000000" font-family="Verdana" font-size="12">destination</text>
	<text x="134" y="416.8" fill="#000000" font-family="Verdana" font-size="12">departure date</text>
	<text x="134" y="433.8" fill="#000000" font-family="Verdana" font-size="12">return date</text>
	<text x="134" y="450.8" fill="#000000" font-family="Verdana" font-size="12">price</text>
</g>

<!-- Entity ACTIVITY -->
<g id="entity-ACTIVITY">
	<g id="frame-ACTIVITY">
		<rect x="372" y="306" width="78" height="25" fill="#fdae61" stroke="#fdae61" stroke-width="0"/>
		<rect x="372" y="331.0" width="78" height="145" fill="#fee08b" stroke="#fee08b" stroke-width="0"/>
		<rect x="372" y="306" width="78" height="170" fill="none" stroke="#f46d43" stroke-width="2"/>
		<line x1="372" y1="331" x2="450" y2="331" stroke="#f46d43" stroke-width="1"/>
	</g>
	<text x="382" y="323.7" fill="#000000" font-family="Verdana" font-size="12">ACTIVITY</text>
	<text x="377" y="348.7" fill="#000000" font-family="Verdana" font-size="12">name</text>
	<line x1="377" y1="351" x2="412" y2="351" stroke="#000000" stroke-width="1"/>
	<text x="377" y="365.7" fill="#000000" font-family="Verdana" font-size="12">topic</text>
	<text x="377" y="382.7" fill="#000000" font-family="Verdana" font-size="12">place</text>
	<text x="377" y="399.8" fill="#000000" font-family="Verdana" font-size="12">duration</text>
	<text x="377" y="416.8" fill="#000000" font-family="Verdana" font-size="12">description</text>
	<text x="377" y="433.8" fill="#000000" font-family="Verdana" font-size="12">date</text>
	<text x="377" y="450.8" fill="#000000" font-family="Verdana" font-size="12">unit price</text>
	<text x="377" y="467.8" fill="#000000" font-family="Verdana" font-size="12">quantity</text>
</g>

<!-- Entity TRAVELER -->
<g id="entity-TRAVELER">
	<g id="frame-TRAVELER">
		<rect x="249" y="9" width="102" height="25" fill="#fdae61" stroke="#fdae61" stroke-width="0"/>
		<rect x="249" y="34.0" width="102" height="247" fill="#fee08b" stroke="#fee08b" stroke-width="0"/>
		<rect x="249" y="9" width="102" height="272" fill="none" stroke="#f46d43" stroke-width="2"/>
		<line x1="249" y1="34" x2="351" y2="34" stroke="#f46d43" stroke-width="1"/>
	</g>
	<text x="268" y="26.7" fill="#000000" font-family="Verdana" font-size="12">TRAVELER</text>
	<text x="254" y="51.7" fill="#000000" font-family="Verdana" font-size="12">firstname</text>
	<line x1="254" y1="54" x2="312" y2="54" stroke="#000000" stroke-width="1"/>
	<text x="254" y="68.7" fill="#000000" font-family="Verdana" font-size="12">lasname</text>
	<text x="254" y="85.7" fill="#000000" font-family="Verdana" font-size="12">role</text>
	<text x="254" y="102.7" fill="#000000" font-family="Verdana" font-size="12">gender</text>
	<text x="254" y="119.7" fill="#000000" font-family="Verdana" font-size="12">dob</text>
	<text x="254" y="136.7" fill="#000000" font-family="Verdana" font-size="12">adress</text>
	<text x="254" y="153.8" fill="#000000" font-family="Verdana" font-size="12">zipcode</text>
	<text x="254" y="170.8" fill="#000000" font-family="Verdana" font-size="12">city</text>
	<text x="254" y="187.8" fill="#000000" font-family="Verdana" font-size="12">phone</text>
	<text x="254" y="204.8" fill="#000000" font-family="Verdana" font-size="12">email</text>
	<text x="254" y="221.8" fill="#000000" font-family="Verdana" font-size="12">email_check</text>
	<text x="254" y="238.8" fill="#000000" font-family="Verdana" font-size="12">password</text>
	<text x="254" y="255.8" fill="#000000" font-family="Verdana" font-size="12">N° passport</text>
	<text x="254" y="272.8" fill="#000000" font-family="Verdana" font-size="12">expiration date</text>
</g>

<!-- Entity TRANSPORT -->
<g id="entity-TRANSPORT">
	<g id="frame-TRANSPORT">
		<rect x="360" y="501" width="102" height="25" fill="#fdae61" stroke="#fdae61" stroke-width="0"/>
		<rect x="360" y="526.0" width="102" height="179" fill="#fee08b" stroke="#fee08b" stroke-width="0"/>
		<rect x="360" y="501" width="102" height="204" fill="none" stroke="#f46d43" stroke-width="2"/>
		<line x1="360" y1="526" x2="462" y2="526" stroke="#f46d43" stroke-width="1"/>
	</g>
	<text x="373" y="518.7" fill="#000000" font-family="Verdana" font-size="12">TRANSPORT</text>
	<text x="365" y="543.7" fill="#000000" font-family="Verdana" font-size="12">type</text>
	<line x1="365" y1="546" x2="393" y2="546" stroke="#000000" stroke-width="1"/>
	<text x="365" y="560.7" fill="#000000" font-family="Verdana" font-size="12">company</text>
	<text x="365" y="577.7" fill="#000000" font-family="Verdana" font-size="12">from</text>
	<text x="365" y="594.7" fill="#000000" font-family="Verdana" font-size="12">departure date</text>
	<text x="365" y="611.8" fill="#000000" font-family="Verdana" font-size="12">to</text>
	<text x="365" y="628.8" fill="#000000" font-family="Verdana" font-size="12">arrival date</text>
	<text x="365" y="645.8" fill="#000000" font-family="Verdana" font-size="12">reservation ref</text>
	<text x="365" y="662.8" fill="#000000" font-family="Verdana" font-size="12">unit price</text>
	<text x="365" y="679.8" fill="#000000" font-family="Verdana" font-size="12">quantity</text>
	<text x="365" y="696.8" fill="#000000" font-family="Verdana" font-size="12">memo</text>
</g>
</svg>